<svg xmlns="http://www.w3.org/2000/svg" version="1.1" xmlns:xlink="http://www.w3.org/1999/xlink" xmlns:svgjs="http://svgjs.com/svgjs" width="600" height="200" preserveAspectRatio="none" viewBox="0 0 600 200">
	<g mask="url(&quot;#SvgjsMask1291&quot;)" fill="none">
		<rect width="600" height="200" x="0" y="0" fill="rgba(47, 47, 47, 1)">
		</rect>
		<path d="M0,151.266C27.724,147.116,49.822,129.29,74.234,115.51C100.319,100.786,136.628,95.306,148.133,67.65C159.661,39.937,137.443,10.394,130.065,-18.7C123.564,-44.334,124.585,-72.963,107.379,-93.045C90.14,-113.166,62.869,-120.092,37.286,-126.986C12.195,-133.748,-13.87,-139.466,-38.895,-132.464C-64.082,-125.417,-82.807,-106.212,-101.678,-88.104C-122.332,-68.285,-147.272,-49.975,-153.886,-22.125C-160.685,6.505,-148.294,35.42,-137.517,62.802C-126.213,91.522,-115.994,123.402,-90.037,140.1C-64.077,156.8,-30.527,155.836,0,151.266" fill="#1f1f1f">
		</path>
		<path d="M600 364.504C630.013 360.238 645.378 326.567 671.8820000000001 311.851 701.0840000000001 295.637 743.24 301.483 762.567 274.242 781.984 246.874 773.178 209.002 768.418 175.785 763.656 142.554 757.3050000000001 108.114 735.148 82.894 713.056 57.74799999999999 680.7860000000001 41.861999999999995 647.518 38.16999999999999 616.683 34.74799999999999 589.002 52.684 559.904 63.44499999999999 532.974 73.404 502.719 77.727 483.317 98.893 463.703 120.29 462.55600000000004 151.276 453.974 179.005 443.602 212.518 415.08299999999997 245.95499999999998 427.666 278.702 440.166 311.231 482.469 318.80899999999997 513.664 334.341 541.518 348.209 569.195 368.88300000000004 600 364.504" fill="#404040">
		</path>
	</g>
	<defs>
		<mask id="SvgjsMask1291">
			<rect width="600" height="200" fill="#ffffff">
			</rect>
		</mask>
	</defs>
</svg>
