<svg xmlns="http://www.w3.org/2000/svg" version="1.1" xmlns:xlink="http://www.w3.org/1999/xlink" xmlns:svgjs="http://svgjs.com/svgjs" width="600" height="200" preserveAspectRatio="none" viewBox="0 0 600 200">
	<g mask="url(&quot;#SvgjsMask1277&quot;)" fill="none">
		<rect width="600" height="200" x="0" y="0" fill="rgba(5, 41, 22, 1)">
		</rect>
		<path d="M0,192.486C37.268,194.759,73.364,182.966,106.379,165.528C141.654,146.895,174.226,123.041,195.44,89.255C218.526,52.488,244.316,8.141,231.187,-33.24C217.98,-74.866,165.171,-86.285,131.086,-113.586C104.18,-135.137,81.789,-159.615,51.921,-176.828C13.84,-198.775,-25.923,-243.694,-66.846,-227.657C-108.971,-211.148,-104.644,-148.477,-124.349,-107.749C-138.202,-79.116,-155.713,-54.064,-165.481,-23.793C-177.084,12.163,-200.029,49.904,-186.62,85.227C-173.18,120.632,-131.187,134.17,-98.354,153.041C-67.096,171.006,-35.986,190.291,0,192.486" fill="#031b0e">
		</path>
		<path d="M600 449.496C645.776 444.09299999999996 670.485 394.525 706.6320000000001 365.923 738.505 340.703 785.056 329.129 799.923 291.302 814.711 253.676 785.9970000000001 214.056 782.134 173.813 778.01 130.849 800.656 82.833 776.48 47.07900000000001 752.169 11.125 701.795 7.312999999999988 660.506-6.062999999999988 618.008-19.830000000000013 574.866-44.143 531.827-32.17599999999999 488.656-20.171999999999997 456.317 17.504999999999995 434.66200000000003 56.73400000000001 415.21500000000003 91.964 426.536 134.5 418.102 173.847 408.81 217.196 371.387 256.375 382.679 299.247 394.14300000000003 342.774 438.841 367.56100000000004 475.865 393.158 514.015 419.534 553.94 454.932 600 449.496" fill="#07371e">
		</path>
	</g>
	<defs>
		<mask id="SvgjsMask1277">
			<rect width="600" height="200" fill="#ffffff">
			</rect>
		</mask>
	</defs>
</svg>
