<svg xmlns="http://www.w3.org/2000/svg" version="1.1" xmlns:xlink="http://www.w3.org/1999/xlink" xmlns:svgjs="http://svgjs.com/svgjs" width="600" height="200" preserveAspectRatio="none" viewBox="0 0 600 200">
	<g mask="url(&quot;#SvgjsMask1306&quot;)" fill="none">
		<rect width="600" height="200" x="0" y="0" fill="rgba(63, 35, 11, 1)">
		</rect>
		<path d="M0,200.544C51.646,202.949,105.849,260.316,148.778,231.503C192.022,202.479,162.019,130.832,177.811,81.203C190.949,39.915,240.323,9.207,233.11,-33.516C225.882,-76.33,173.885,-93.368,143.16,-124.049C115.145,-152.024,98.232,-194.046,60.463,-205.917C22.549,-217.833,-17.19,-199.416,-54.682,-186.229C-90.423,-173.658,-127.311,-160.438,-151.572,-131.338C-175.621,-102.493,-173.626,-61.864,-187.471,-26.954C-206.698,21.527,-258.599,62.372,-248.705,113.58C-238.98,163.911,-188.522,201.131,-140.133,218.051C-94.779,233.91,-47.995,198.309,0,200.544" fill="#361e0a">
		</path>
		<path d="M600 422.06C642.018 421.48400000000004 685.064 409.24199999999996 716.686 381.567 746.564 355.419 757.167 314.678 766.73 276.14300000000003 774.946 243.035 768.444 209.989 767.731 175.88400000000001 766.902 136.236 784.767 92.064 762.198 59.45500000000001 739.559 26.744 693.967 20.590000000000003 654.935 12.907999999999987 618.629 5.763000000000005 580.296 2.4550000000000125 546.254 16.95599999999999 513.894 30.74000000000001 499.829 67.10499999999999 473.35 90.257 441.129 118.43 381.464 125.359 374.06399999999996 167.515 366.731 209.288 422.60699999999997 234.40800000000002 441.369 272.444 459.312 308.818 451.735 356.96299999999997 481.241 384.79200000000003 512.047 413.848 557.657 422.64 600 422.06" fill="#48280d">
		</path>
	</g>
	<defs>
		<mask id="SvgjsMask1306">
			<rect width="600" height="200" fill="#ffffff">
			</rect>
		</mask>
	</defs>
</svg>
