<svg xmlns="http://www.w3.org/2000/svg" version="1.1" xmlns:xlink="http://www.w3.org/1999/xlink" xmlns:svgjs="http://svgjs.com/svgjs" width="600" height="200" preserveAspectRatio="none" viewBox="0 0 600 200">
	<g mask="url(&quot;#SvgjsMask1118&quot;)" fill="none">
		<rect width="600" height="200" x="0" y="0" fill="#0e2a47">
		</rect>
		<path d="M0,282.599C51.603,270.642,75.808,213.159,112.336,174.798C139.7,146.06,165.065,118.35,187.541,85.647C214.81,45.971,257.422,11.051,257.966,-37.09C258.522,-86.295,227.785,-132.996,190.371,-164.958C155.136,-195.059,105.969,-197.2,60.438,-205.834C19.271,-213.64,-21.606,-221.968,-62.516,-212.911C-105.365,-203.425,-145.768,-184.217,-176.905,-153.289C-209.527,-120.886,-228.966,-78.91,-241.857,-34.774C-256.378,14.942,-272.169,67.681,-255.797,116.818C-238.778,167.898,-196.83,206.687,-151.648,235.969C-106.351,265.326,-52.585,294.784,0,282.599" fill="#0d2640">
		</path>
		<path d="M600 361.178C629.587 359.27 650.102 332.642 673.761 314.775 695.531 298.335 721.956 285.68399999999997 732.999 260.739 743.999 235.892 740.206 207.083 733.039 180.872 726.438 156.731 712.04 135.911 694.095 118.466 677.237 102.078 656.103 92.273 633.912 84.507 610.667 76.372 586.372 66.215 562.542 72.429 538.474 78.705 521.628 99.179 505.389 118.019 489.18600000000004 136.817 474.27 156.926 468.836 181.141 463.135 206.55 465.37 232.964 474.091 257.501 483.355 283.56600000000003 498.506 307.116 519.86 324.7 542.986 343.74199999999996 570.105 363.106 600 361.178" fill="#0f2e4e">
		</path>
	</g>
	<defs>
		<mask id="SvgjsMask1118">
			<rect width="600" height="200" fill="#ffffff">
			</rect>
		</mask>
	</defs>
</svg>
